<svg xmlns="http://www.w3.org/2000/svg" fill-rule="evenodd" clip-rule="evenodd">
<defs>
<style>:root svg:not(:target) {display: none;}</style>
</defs>


<svg id="burger" viewBox="0 0 8 8" fill="none" stroke="currentcolor" stroke-width="0.5" stroke-linecap="square">
	<path d="M1 3H7M1 5H7"/>
	<!--<path d="M1 1H7M1 4H7M1 7H7"/>-->
</svg>


<svg id="cross" viewBox="0 0 8 8" fill="none" stroke="currentcolor" stroke-width="0.5">
	<path d="M1 1L7 7M7 1L1 7"/>
</svg>


<svg id="arrow-simple" viewBox="0 0 8 8" fill="none" stroke="currentcolor" stroke-width="1">
	<path d="M3 1L6 4L3 7"/>
	<!--<path id="down" d="M1 3L4 6L7 3"/>
	<path id="left" d="M5 1L2 4L5 7"/>
	<path id="up" d="M1 5L4 2L7 5"/>-->
</svg>

<svg id="arrow-simple-dark" viewBox="0 0 8 8" fill="none" stroke="#fff" stroke-width="1">
	<path d="M3 1L6 4L3 7"/>
	<!--<path id="down" d="M1 3L4 6L7 3"/>
	<path id="left" d="M5 1L2 4L5 7"/>
	<path id="up" d="M1 5L4 2L7 5"/>-->
</svg>


<svg id="viber" viewBox="0 0 24 24" fill="#010513">
	<path d="M11.7744 3C10.3494 3 6.82466 3.14971 4.94966 4.94971C3.59966 6.22471 3.07495 8.175 2.99995 10.5C2.84995 14.175 3.67436 16.4997 5.02436 17.6997C5.32436 17.9247 6.07495 18.5256 7.49995 18.9756V20.8506C7.49995 20.8506 7.49966 21.6 7.94966 21.75C8.02466 21.75 8.10024 21.8247 8.17524 21.8247C8.62524 21.8247 8.99936 21.2994 9.52436 20.7744C9.97436 20.2494 10.3497 19.875 10.5747 19.5H11.6249H12.2255C13.6505 19.5 17.1752 19.3503 19.0502 17.5503C20.4002 16.2003 20.9252 14.2494 20.9252 11.7744C21.0002 11.3994 20.9999 10.95 20.9999 10.5C20.9249 7.725 20.1005 5.85029 18.9755 4.80029C18.5255 4.42529 16.5749 3 12.3749 3H11.7744ZM11.6249 4.42529H12.1494H12.2255H12.3002C16.2752 4.42529 17.7752 5.70059 17.9252 5.85059C18.8252 6.60059 19.3502 8.25029 19.4252 10.4253V10.7256C19.5002 11.1756 19.4999 11.5494 19.4999 11.7744C19.4249 14.0244 18.9747 15.525 18.0747 16.5C16.4997 17.925 13.2002 18 12.3002 18H11.7744H11.6997H11.6249H10.8749L9.67524 19.3506L8.92524 20.1753L8.77436 20.3994C8.62436 20.5494 8.39995 20.8503 8.24995 20.9253V20.7744V17.5503C6.74995 17.1753 6.14995 16.65 5.99995 16.5C4.94995 15.6 4.34995 13.425 4.49995 10.5V9.75C4.64995 7.95 5.10054 6.75029 5.85054 5.92529C7.42554 4.50029 10.7249 4.42529 11.6249 4.42529ZM11.5502 6.07471C11.1752 6.07471 11.1752 6.60059 11.5502 6.60059C14.3252 6.60059 16.7255 8.475 16.7255 12C16.7255 12.375 17.2499 12.375 17.2499 12C17.2499 8.175 14.7002 5.99971 11.5502 6.07471ZM8.57807 6.76904C8.4187 6.75029 8.25054 6.78691 8.10054 6.89941C7.35054 7.27441 6.59966 8.02559 6.82466 8.85059C6.82466 8.85059 6.97524 9.52471 7.80024 10.9497C8.25024 11.6247 8.62495 12.2253 8.99995 12.6753C9.37495 13.2003 9.97466 13.8 10.5747 14.25C11.7747 15.225 13.6505 16.2003 14.4755 16.4253C15.2255 16.6503 16.0502 15.8994 16.4252 15.1494C16.5752 14.8494 16.4997 14.475 16.1997 14.25C15.7497 13.8 15.0005 13.2756 14.4755 12.9756C14.1005 12.7506 13.6499 12.9 13.4999 13.125L13.1249 13.5747C12.9749 13.7997 12.6005 13.8003 12.6005 13.8003C10.1255 13.1253 9.44966 10.5747 9.44966 10.5747C9.44966 10.5747 9.45024 10.2753 9.67524 10.0503L10.1249 9.67529C10.3499 9.52529 10.4994 9.07471 10.2744 8.69971C10.1244 8.47471 9.90024 8.02529 9.67524 7.80029C9.45024 7.50029 8.99995 6.97559 8.99995 6.97559C8.88745 6.86309 8.73745 6.78779 8.57807 6.76904ZM12.0747 7.57471C11.6997 7.49971 11.6249 8.10059 11.9999 8.10059C14.0999 8.25059 15.3005 9.67559 15.2255 11.4756C15.1505 11.8506 15.7499 11.8506 15.7499 11.4756C15.8249 9.37559 14.4747 7.64971 12.0747 7.57471ZM12.3002 9C11.9252 8.925 11.9252 9.52441 12.3002 9.52441C13.2002 9.52441 13.6494 10.0497 13.6494 10.9497C13.7244 11.3247 14.2499 11.3247 14.2499 10.9497C14.1749 9.74971 13.5002 9 12.3002 9Z"/>
</svg>


<svg id="whatsapp" viewBox="0 0 24 24" fill="#010513">
	<path d="M12.0117 2C6.50572 2 2.02348 6.47837 2.02148 11.9844C2.02048 13.7444 2.48147 15.4626 3.35547 16.9766L2 22L7.23242 20.7637C8.69142 21.5597 10.3339 21.9775 12.0059 21.9785H12.0098C17.5148 21.9785 21.995 17.4991 21.998 11.9941C22 9.32514 20.9622 6.81573 19.0762 4.92773C17.1902 3.04073 14.6837 2.001 12.0117 2ZM12.0098 4C14.1458 4.001 16.1531 4.8338 17.6621 6.3418C19.1711 7.8518 20 9.85819 19.998 11.9922C19.996 16.3962 16.4138 19.9785 12.0078 19.9785C10.6748 19.9775 9.35441 19.6428 8.19141 19.0078L7.51758 18.6406L6.77344 18.8164L4.80469 19.2812L5.28516 17.4961L5.50195 16.6953L5.08789 15.9766C4.38989 14.7686 4.02048 13.3874 4.02148 11.9844C4.02348 7.58238 7.60677 4 12.0098 4ZM8.47656 7.375C8.30956 7.375 8.03955 7.4375 7.81055 7.6875C7.58155 7.9365 6.93555 8.53958 6.93555 9.76758C6.93555 10.9956 7.83008 12.1826 7.95508 12.3496C8.07908 12.5156 9.68175 15.1152 12.2188 16.1152C14.3267 16.9462 14.7549 16.7822 15.2129 16.7402C15.6709 16.6992 16.6904 16.1377 16.8984 15.5547C17.1064 14.9717 17.1069 14.4702 17.0449 14.3672C16.9829 14.2632 16.8164 14.2012 16.5664 14.0762C16.3174 13.9512 15.0903 13.3486 14.8613 13.2656C14.6323 13.1826 14.4648 13.1406 14.2988 13.3906C14.1328 13.6406 13.6558 14.2012 13.5098 14.3672C13.3638 14.5342 13.2188 14.5566 12.9688 14.4316C12.7188 14.3056 11.9149 14.0414 10.9609 13.1914C10.2189 12.5304 9.71827 11.7148 9.57227 11.4648C9.42727 11.2158 9.55859 11.0791 9.68359 10.9551C9.79559 10.8431 9.93164 10.6636 10.0566 10.5176C10.1806 10.3716 10.2236 10.2676 10.3066 10.1016C10.3896 9.93556 10.3472 9.78906 10.2852 9.66406C10.2232 9.53906 9.73763 8.3065 9.51562 7.8125C9.32863 7.3975 9.13112 7.38786 8.95312 7.38086C8.80813 7.37486 8.64256 7.375 8.47656 7.375Z"/>
</svg>


<svg id="telegram" viewBox="0 0 24 24" fill="#010513">
	<path d="M20.1238 3.18755C19.8638 3.19902 19.6215 3.27477 19.4082 3.36099C19.2084 3.44136 18.445 3.76878 17.2426 4.28442C16.0391 4.80052 14.4456 5.48467 12.7457 6.21567C9.34596 7.67768 5.52376 9.32338 3.56602 10.1657C3.4924 10.1973 3.23553 10.2794 2.96289 10.4922C2.69025 10.7051 2.40039 11.1461 2.40039 11.6375C2.40039 12.0338 2.58924 12.4275 2.82695 12.6625C3.06466 12.8976 3.31619 13.0137 3.53164 13.1016C4.31337 13.4206 6.73787 14.4127 7.1957 14.6C7.35683 15.0936 8.23438 17.7781 8.43789 18.436C8.57205 18.8701 8.69975 19.1421 8.86602 19.3579C8.94915 19.4658 9.04578 19.5603 9.16289 19.6344C9.2097 19.664 9.26102 19.6869 9.31289 19.7079L9.31602 19.7094C9.32797 19.7142 9.33827 19.7224 9.35039 19.7266C9.37326 19.7346 9.38855 19.7356 9.41914 19.7422C9.541 19.7816 9.66403 19.8063 9.77383 19.8063C10.242 19.8063 10.5285 19.5485 10.5285 19.5485L10.5457 19.536L12.9535 17.4532L15.8738 20.2157C15.9149 20.2738 16.2984 20.8 17.1441 20.8C17.6463 20.8 18.0446 20.5481 18.3004 20.2797C18.5561 20.0114 18.7155 19.7295 18.7832 19.375V19.3735C18.8466 19.0386 21.5379 5.22192 21.5379 5.22192L21.5332 5.24067C21.612 4.88106 21.6326 4.54616 21.5457 4.21567C21.4588 3.88519 21.2297 3.56876 20.9457 3.39849C20.6617 3.22825 20.3839 3.17608 20.1238 3.18755ZM19.9738 4.85942C19.97 4.88277 19.9767 4.87103 19.9707 4.89849L19.9691 4.90786L19.9676 4.91724C19.9676 4.91724 17.3096 18.5571 17.2113 19.0766C17.2185 19.0374 17.1856 19.1154 17.152 19.1625C17.1043 19.1297 17.0066 19.0875 17.0066 19.0875L16.991 19.0704L13.002 15.2969L10.1816 17.7344L11.0207 14.375C11.0207 14.375 16.2656 8.94574 16.5816 8.62974C16.836 8.37694 16.8895 8.28881 16.8895 8.20161C16.8895 8.08481 16.8286 8.00005 16.6926 8.00005C16.5702 8.00005 16.4056 8.11905 16.3176 8.17505C15.1711 8.90588 10.1378 11.8394 7.88164 13.1516C7.52309 13.0049 5.03212 11.9852 4.18789 11.6407C4.19428 11.6379 4.19218 11.6389 4.19883 11.636C6.15708 10.7935 9.97769 9.14778 13.377 7.68599C15.0766 6.95509 16.6713 6.27042 17.8738 5.75474C19.0578 5.247 19.8805 4.89756 19.9738 4.85942Z"/>
</svg>



<!--Ниже библиотека SVG, которая не используется на сайте (потом удалить их):-->

<!--Иконки фигур:-->
<svg id="transparency-cells" viewBox="0 0 2 2" fill="#DEDEDE">
	<path d="M1 2V0H2V1H0V2H1Z"/>
</svg>


<svg id="dot-shadow" viewBox="0 0 4 4" fill="currentcolor">
	<circle cx="2" cy="2" r="1"/>
</svg>


<svg id="plus" viewBox="0 0 8 8" fill="none" stroke="currentcolor" stroke-width="1" stroke-linecap="square">
	<path d="M4 1V7M1 4H7"/>
</svg>
<!--<svg id="plus-dark" viewBox="0 0 8 8" fill="none" stroke="currentcolor" stroke-width="1" stroke-linecap="square">
	<path d="M4 1V7M1 4H7"/>
</svg>-->


<svg id="cross" viewBox="0 0 8 8" fill="none" stroke="currentcolor" stroke-width="1">
	<path d="M1 1L7 7M7 1L1 7"/>
</svg>


<svg id="checkbox" viewBox="0 0 8 8" fill="none" stroke="currentcolor" stroke-width="1">
	<path d="M1.5 4L3.5 6L7 2.5"/>
</svg>


<svg id="burger" viewBox="0 0 8 8" fill="none" stroke="currentcolor" stroke-width="1" stroke-linecap="square">
	<path d="M1 1H7M1 4H7M1 7H7"/>
</svg>


<svg id="arrow-simple" viewBox="0 0 8 8" fill="none" stroke="currentcolor" stroke-width="1">
	<path d="M1 3L4 6L7 3"/>
	<!--<path id="right" d="M3 1L6 4L3 7"/>
	<path id="left" d="M5 1L2 4L5 7"/>
	<path id="up" d="M1 5L4 2L7 5"/>-->
</svg>


<svg id="arrow-link" viewBox="0 0 8 8" fill="none" stroke="currentcolor" stroke-width="1">
	<path d="M4.5 1H7V3.5 M7 1L3.5 4.5 M3.5 1.5H1L1 7L6.5 7V4.5"/>
	<!--<path id="var-2" d="M4.5 1H7V3.5 M7 1L3.5 4.5 M3.5 1H1L1 7L7 7V4.5"/>-->
</svg>


<svg id="arrow-diagonal" viewBox="0 0 8 8" fill="none" stroke="currentcolor" stroke-width="1">
	<path d="M1 7L7 1"/>
	<path d="M1 1H7V7" stroke-linecap="square"/>
	<!--<path id="diagonal-down2" d="M1 7L7 1"/>
	<path id="diagonal-down" d="M1 1V7H7" stroke-linecap="square"/>-->
</svg>


<svg id="arrow-bold" viewBox="0 0 8 8" fill="currentcolor" stroke="currentcolor" stroke-width="1">
	<path d="M5 2H3V5H2L4 7L6 5H5V2Z"/>
</svg>


<svg id="arrow" viewBox="0 0 8 8" fill="none" stroke="currentcolor" stroke-width="1">
	<path d="M6 4H1 M4 2L6 4L4 6"/>
	<!--<path id="down" d="M4 6V1 M6 4L4 6L2 4"/>
	<path id="left" d="M2 4H7 M4 2L2 4L4 6"/>
	<path id="up" d="M4 2V7 M2 4L4 2L6 4"/>-->
</svg>




<!--Иконки соцсетей:-->
<svg id="email" viewBox="0 0 96 96" fill="currentcolor">
	<path d="M88 70V26L61 48L88 70Z M8 74H88L58.5 50C50.5 56.5 45.5 56.5 37.5 50L8 74Z M88 22H8L40 48C46 53 50 53 56 48L88 22Z M8 26V70L35 48L8 26Z"/>
</svg>


<svg id="tel" viewBox="0 0 96 96" fill="currentcolor">
	<path d="M7 39C4 46 3 59 3 66L29 63C29 57 25 46 25 46C25 46 30 39 48 39C66 39 71 46 71 46C71 46 67 57 67 63L93 66C93 59 92 46 89 39C89 39 77 30 48 30C19 30 7 39 7 39Z" transform="rotate(240 47 48)"/>
</svg>


<svg id="telegram" viewBox="0 0 96 96" fill="currentcolor">
	<path d="M80 28C80.5 23 79 21 73 23C55 29 13 48 13 48C8.5 50 9 53 13 54L23.5 57C26.5 58 29 58 32 56L59 38C62 36 64 37 62 39L42.5 58C38 63 41 64 45 67L63 79C69 83 71.5 80 73 73C73 73 79 41 80 28Z"/>
</svg>


<svg id="vkontakte" viewBox="0 0 96 96" fill="currentcolor">
	<path d="M21 23H8C9 53 22 73 53 73V55C65 57 71 64 74 73H88C85 60 75 52 67 48C75 44 83 34 85 23H72C70 32 61 42 53 43V23H40V58C28 55 21 40 21 23Z"/>
</svg>


<svg id="whatsapp" viewBox="0 0 96 96" fill="currentcolor">
	<path d="M48 80C65.7 80 80 65.7 80 48C80 30.3 65.7 16 48 16C30.3 16 16 30.3 16 48C16 54.9 18.3 61.3 22 66.5L19 78L31 75C36 78.1 41.7 80 48 80ZM41.5 38.5C40.5 35.5 40 34 38 30.5C37 29 34.5 29.5 33 30.5C31 31.5 28.5 34.5 28.5 39C29 50 44 64 57 66C61.5 66.5 64 65.5 67 61C68 59 68 58 67 57C63.5 55 62.5 54.5 59 53C59 53 58 52.5 57 53.5C55.8 54.7 54 57 54 57C54 57 53 58 52 57.5C45 54 42 51 39 46C38 44.5 39 43 39 43C40 42 41 41 41 41C41 41 42 40 41.5 38.5Z"/>
</svg>


<svg id="discord" viewBox="0 0 96 96" fill="currentcolor">
	<path d="M38 20L40 24C46 23 51 23 57 24L59 20C63 20.5 69 22 74 25C83 39 87 52 85 67C79 71 73 74 67 76C64.5 73 63 70 63 70C67 69 70 67 70 67L68 65C56 71 41 71 29 65L27 67C27 67 30 69 34 70C34 70 32.5 73 30 76C24 74 18 71 12 67C10 52 14 39 23 25C28 22 34 20.5 38 20ZM43 50.5C43 45 39 43 36 43C33 43 29 45 29 50.5C29 56 33 58 36 58C39 58 43 56 43 50.5ZM68 50.5C68 45 64 43 61 43C58 43 54 45 54 50.5C54 56 58 58 61 58C64 58 68 56 68 50.5Z"/>
</svg>


<svg id="instagram" viewBox="0 0 96 96" fill="currentcolor">
	<path fill-rule="evenodd" clip-rule="evenodd" d="M48 17C22 17 17 22 17 48C17 74 22 79 48 79C74 79 79 74 79 48C79 22 74 17 48 17ZM48 35C55 35 61 41 61 48C61 55 55 61 48 61C41 61 35 55 35 48C35 41 41 35 48 35ZM69 31C69 33 67.5 35 65 35C62.5 35 61 33 61 31C61 29 62.5 27 65 27C67.5 27 69 29 69 31Z"/>
</svg>


<svg id="boosty" viewBox="0 0 96 96" fill="currentcolor">
	<path d="M35 15H52L40 60H48L40 81C25 81 20 70 24 56L35 15ZM40 81L60 51H51.5L59 31C71 32 78 43 74 56C70 71 54 81 40 81Z" />
</svg>




<svg id="star" viewBox="0 0 96 96" fill="gold" stroke="currentcolor" stroke-width="3" stroke-linejoin="round">
	<path id="star-dots" d="M58 39L48 8L38 39H5L32 58L22 88L48 69.5L74 88L64 58L91 39H58Z"/>
	<!--<polygon id="star-original" points="50,0 21,90 98,35 2,35 79,90"/>
	<path id="star-original" d="M51 3L22 93L99 38H3L80 93L51 3Z"/>
	<path id="star-lines" d="M48 8L22 88L91 39H5L74 88L48 8Z"/>
	-->
</svg>


<svg id="logo" viewBox="0 0 72 72" fill="none" stroke="currentcolor">
	<path d="M69 36c0 18-15 33-33 33S3 54 3 36 18 3 36 3s33 15 33 33ZM4 44l16-16 16 16 16-16 16 16" stroke-width="5"/>
</svg>


<svg id="placeholder" viewBox="0 0 8 8" fill="none" preserveAspectRatio="none">
	<rect width="8" height="8" fill="hsl(0 0% 85%)"/>
	<path d="M0 0L8 8M8 0L0 8" stroke="#fff" stroke-opacity="0.5" stroke-width="0.2"/>
</svg>




</svg>
